<svg id="Layer_1" data-name="Layer 1" xmlns="http://www.w3.org/2000/svg" viewBox="0 0 258.23 330.43"><defs><style>.cls-1{fill:#2480fe;}</style></defs><title>Flo-chat</title><path class="cls-1" d="M258.2,300.2c.4-6.73-3.23-13-13.63-17.63-11.83-5.26-14-17.61-14.37-23.1-.14-1.91.17-1.91,1.68-1.3a18.71,18.71,0,0,0,5.6,1c9.08.28,11.47-9,11.5-9.07a.49.49,0,0,0,0-.52.47.47,0,0,0-.5-.18,14.85,14.85,0,0,1-3.12.36c-5.85,0-13-7.21-15.32-17.8a176.79,176.79,0,0,1-4.26-31.24c-.15-4.05.44-12.6-.19-12.52-.87.11-3.65,10-10.62,21.47-6.14,10.11-14.78,14.7-17.05,25.74-2,9.73-6,14-13.59,18.55-.52.31-1,.64-1,1.25v1.61c5.3,53.74,37,47.72,49.83,51.24,10.57,2.9,19.81,10.85,22.63,13.43.36.34,1.08.1,1-.39C255.24,312,257.91,305,258.2,300.2Z"/><path class="cls-1" d="M232.15,98.31c-14-106.92-87-100.73-112.74-96.4C88.25,7.15,24.59,29.62,23.13,122.36c-.75,47.55,18.07,88,18.08,88.07,3.57,7.71,5,14,5,19.13,0,18.34-17.82,22-17.85,22a.86.86,0,0,0-.36.64c1.5,3.94,5.91,4.63,8.23,4.75a.47.47,0,0,1,.45.49.41.41,0,0,1,0,.18C27.7,275.4,4.81,275.08.49,274.86a.46.46,0,0,0-.49.44.64.64,0,0,0,0,.2c3.55,9.4,12.69,11.36,19.48,11.35a42.55,42.55,0,0,0,6.18-.48.47.47,0,0,1,.54.39.57.57,0,0,1,0,.26c-3.37,8.12-4.74,14.28-4.74,19,0,11.37,8.21,13.89,14.92,13.9a36.74,36.74,0,0,0,8.54-1.09.47.47,0,0,1,.54.27c3.24,7.3,7.68,12,17.09,11.25,10.14-.82,16.12-8.25,17.78-10.57A.47.47,0,0,0,80,319c-4.92-.41-7.18-3.36-7.94-6.2a.46.46,0,0,1,.32-.57.49.49,0,0,1,.27,0c12,5.18,21.27-4.84,24.26-8.41a.89.89,0,0,0-.11-1.26.91.91,0,0,0-.57-.21C85.38,302.3,81,296,80.74,288.25c-.43-10.85,7.93-21.45,13.76-37,11.1-29.56-.92-57.8-2.65-68.55C88,159,107.12,122.33,115.73,112.43c9.6-11.05,28.86-8.83,73.88-54.79.17-.18-.22-.13,0,0C204,66,215,80.6,222.17,99c5.43,13.84,5.33,40.11,5.09,49.68a.81.81,0,0,0,.79.83.8.8,0,0,0,.79-.55C231.77,140.06,234.46,115.93,232.15,98.31ZM217.79,70.42a.47.47,0,0,1-.61-.19c-14.6-26.36-41.09-31.72-60.32-29.37-32.57,4-56.62,32.68-72.49,60.49A278.38,278.38,0,0,0,60.81,156a.48.48,0,0,1-.46.35H60.3a.47.47,0,0,1-.45-.43c-.65-6.13-6.75-41.55,5-75.6C80.79,34.27,115.68,18,143.72,18c57.39,0,74.33,51.77,74.34,51.81a.5.5,0,0,1-.27.6Z"/><path class="cls-1" d="M203,194.83a18.32,18.32,0,0,0-7.82-1.13c-3,.26-5.9,1.56-8.94,1.76s-6.06-1-9.15-1.58a25.41,25.41,0,0,0-11.28.07c-4.86,1.07-19,5.35-24.18,3.82-1.16-.34-1.82.49-1.51,1.26,1.35,3.39,5,8,11.16,13.55,5.23,4.68,14.12,12.89,28.65,11.69,6.78-.56,12.54-3.86,17.19-13.07,2.31-4.56,6.42-11,7.32-12.33C205.83,196.79,205.33,195.66,203,194.83Zm-2.86,5.25c-1.92,2.46-7.17,13.6-21.06,14.06-12.46.41-28.61-5.9-33.08-11.82-.41-.54-.09-1.49.6-1.44,7.12.54,13.74-2,23-.51a67.93,67.93,0,0,0,12.8,1.37c8.36,0,14.19-3.59,16.12-3.86,1.57-.23,2.55,1.08,1.66,2.2Z"/></svg>